<svg width="48" height="49" viewBox="0 0 48 49" fill="none" xmlns="http://www.w3.org/2000/svg">
<g opacity="0.8">
<path d="M24 27.5H15C12.2089 27.5 10.8133 27.5 9.67772 27.8445C7.12091 28.6201 5.12008 30.6209 4.34448 33.1777C4 34.3133 4 35.7089 4 38.5M29 11.5C29 16.4706 24.9706 20.5 20 20.5C15.0294 20.5 11 16.4706 11 11.5C11 6.52944 15.0294 2.5 20 2.5C24.9706 2.5 29 6.52944 29 11.5Z" stroke="white" stroke-width="1.5" stroke-linecap="round" stroke-linejoin="round"/>
<path d="M35.5 39.15C37.2397 39.15 38.65 37.7397 38.65 36C38.65 34.2603 37.2397 32.85 35.5 32.85C33.7603 32.85 32.35 34.2603 32.35 36C32.35 37.7397 33.7603 39.15 35.5 39.15Z" stroke="white" stroke-width="1.5" stroke-linecap="round" stroke-linejoin="round"/>
<path d="M42.5636 38.8636C42.4366 39.1515 42.3987 39.4709 42.4548 39.7806C42.511 40.0902 42.6586 40.3759 42.8786 40.6009L42.9359 40.6582C43.1134 40.8355 43.2542 41.046 43.3503 41.2778C43.4464 41.5096 43.4958 41.758 43.4958 42.0089C43.4958 42.2597 43.4464 42.5082 43.3503 42.7399C43.2542 42.9717 43.1134 43.1822 42.9359 43.3595C42.7586 43.537 42.5481 43.6779 42.3163 43.7739C42.0845 43.87 41.8361 43.9195 41.5852 43.9195C41.3343 43.9195 41.0859 43.87 40.8542 43.7739C40.6224 43.6779 40.4118 43.537 40.2345 43.3595L40.1773 43.3023C39.9523 43.0822 39.6666 42.9346 39.3569 42.8784C39.0473 42.8223 38.7279 42.8602 38.44 42.9873C38.1577 43.1083 37.9169 43.3092 37.7473 43.5653C37.5777 43.8214 37.4867 44.1215 37.4855 44.4286V44.5909C37.4855 45.0972 37.2843 45.5828 36.9263 45.9408C36.5683 46.2989 36.0827 46.5 35.5764 46.5C35.07 46.5 34.5845 46.2989 34.2264 45.9408C33.8684 45.5828 33.6673 45.0972 33.6673 44.5909V44.505C33.6599 44.1891 33.5576 43.8826 33.3738 43.6256C33.1899 43.3685 32.933 43.1727 32.6364 43.0636C32.3485 42.9366 32.0291 42.8987 31.7194 42.9548C31.4098 43.011 31.1241 43.1586 30.8991 43.3786L30.8418 43.4359C30.6645 43.6134 30.454 43.7542 30.2222 43.8503C29.9904 43.9464 29.742 43.9958 29.4911 43.9958C29.2403 43.9958 28.9918 43.9464 28.7601 43.8503C28.5283 43.7542 28.3178 43.6134 28.1405 43.4359C27.963 43.2586 27.8221 43.0481 27.7261 42.8163C27.63 42.5845 27.5805 42.3361 27.5805 42.0852C27.5805 41.8343 27.63 41.5859 27.7261 41.3542C27.8221 41.1224 27.963 40.9118 28.1405 40.7345L28.1977 40.6773C28.4178 40.4523 28.5654 40.1666 28.6215 39.8569C28.6777 39.5473 28.6398 39.2279 28.5127 38.94C28.3917 38.6577 28.1908 38.4169 27.9347 38.2473C27.6786 38.0777 27.3785 37.9867 27.0714 37.9855H26.9091C26.4028 37.9855 25.9172 37.7843 25.5592 37.4263C25.2011 37.0683 25 36.5827 25 36.0764C25 35.57 25.2011 35.0845 25.5592 34.7264C25.9172 34.3684 26.4028 34.1673 26.9091 34.1673H26.995C27.3109 34.1599 27.6174 34.0576 27.8744 33.8738C28.1315 33.6899 28.3273 33.433 28.4364 33.1364C28.5634 32.8485 28.6013 32.5291 28.5452 32.2194C28.489 31.9098 28.3414 31.6241 28.1214 31.3991L28.0641 31.3418C27.8866 31.1645 27.7458 30.954 27.6497 30.7222C27.5536 30.4904 27.5042 30.242 27.5042 29.9911C27.5042 29.7403 27.5536 29.4918 27.6497 29.2601C27.7458 29.0283 27.8866 28.8178 28.0641 28.6405C28.2414 28.463 28.4519 28.3221 28.6837 28.2261C28.9155 28.13 29.1639 28.0805 29.4148 28.0805C29.6657 28.0805 29.9141 28.13 30.1458 28.2261C30.3776 28.3221 30.5882 28.463 30.7655 28.6405L30.8227 28.6977C31.0477 28.9178 31.3334 29.0654 31.6431 29.1215C31.9527 29.1777 32.2721 29.1398 32.56 29.0127H32.6364C32.9187 28.8917 33.1595 28.6908 33.3291 28.4347C33.4987 28.1786 33.5897 27.8785 33.5909 27.5714V27.4091C33.5909 26.9028 33.792 26.4172 34.1501 26.0592C34.5081 25.7011 34.9937 25.5 35.5 25.5C36.0063 25.5 36.4919 25.7011 36.8499 26.0592C37.208 26.4172 37.4091 26.9028 37.4091 27.4091V27.495C37.4103 27.8022 37.5013 28.1023 37.6709 28.3584C37.8405 28.6144 38.0813 28.8154 38.3636 28.9364C38.6515 29.0634 38.9709 29.1013 39.2806 29.0452C39.5902 28.989 39.8759 28.8414 40.1009 28.6214L40.1582 28.5641C40.3355 28.3866 40.546 28.2458 40.7778 28.1497C41.0096 28.0536 41.258 28.0042 41.5089 28.0042C41.7597 28.0042 42.0082 28.0536 42.2399 28.1497C42.4717 28.2458 42.6822 28.3866 42.8595 28.5641C43.037 28.7414 43.1779 28.9519 43.2739 29.1837C43.37 29.4155 43.4195 29.6639 43.4195 29.9148C43.4195 30.1657 43.37 30.4141 43.2739 30.6458C43.1779 30.8776 43.037 31.0882 42.8595 31.2655L42.8023 31.3227C42.5822 31.5477 42.4346 31.8334 42.3784 32.1431C42.3223 32.4527 42.3602 32.7721 42.4873 33.06V33.1364C42.6083 33.4187 42.8092 33.6595 43.0653 33.8291C43.3214 33.9987 43.6215 34.0897 43.9286 34.0909H44.0909C44.5972 34.0909 45.0828 34.292 45.4408 34.6501C45.7989 35.0081 46 35.4937 46 36C46 36.5063 45.7989 36.9919 45.4408 37.3499C45.0828 37.708 44.5972 37.9091 44.0909 37.9091H44.005C43.6978 37.9103 43.3977 38.0013 43.1416 38.1709C42.8856 38.3405 42.6846 38.5813 42.5636 38.8636Z" stroke="white" stroke-width="1.5" stroke-linecap="round" stroke-linejoin="round"/>
</g>
</svg>
