<svg width="34" height="43" viewBox="0 0 34 43" fill="none" xmlns="http://www.w3.org/2000/svg">
<path d="M21 2.03906V10.3001C21 11.4202 21 11.9803 21.218 12.4081C21.4097 12.7844 21.7157 13.0904 22.092 13.2822C22.5198 13.5001 23.0799 13.5001 24.2 13.5001H32.4611M12.7 21.5045C13.0523 20.5027 13.7479 19.658 14.6634 19.12C15.5789 18.5819 16.6553 18.3852 17.702 18.5647C18.7486 18.7443 19.698 19.2884 20.3818 20.1008C21.0657 20.9132 21.44 21.9414 21.4384 23.0034C21.4384 26.0011 16.9418 27.5 16.9418 27.5M17 33.5H17.02M21 1.5H10.6C7.23969 1.5 5.55953 1.5 4.27606 2.15396C3.14708 2.7292 2.2292 3.64708 1.65396 4.77606C1 6.05953 1 7.73969 1 11.1V31.9C1 35.2603 1 36.9405 1.65396 38.2239C2.2292 39.3529 3.14708 40.2708 4.27606 40.846C5.55953 41.5 7.23969 41.5 10.6 41.5H23.4C26.7603 41.5 28.4405 41.5 29.7239 40.846C30.8529 40.2708 31.7708 39.3529 32.346 38.2239C33 36.9405 33 35.2603 33 31.9V13.5L21 1.5Z" stroke="white" stroke-width="1.5" stroke-linecap="round" stroke-linejoin="round"/>
</svg>
