<svg width="42" height="37" viewBox="0 0 42 37" fill="none" xmlns="http://www.w3.org/2000/svg">
<path d="M29 2.43552C31.9634 3.90822 34 6.96628 34 10.5C34 14.0337 31.9634 17.0918 29 18.5645M33 29.0328C36.0229 30.4007 38.745 32.63 41 35.5M1 35.5C4.89298 30.5452 10.1784 27.5 16 27.5C21.8216 27.5 27.107 30.5452 31 35.5M25 10.5C25 15.4706 20.9706 19.5 16 19.5C11.0294 19.5 7 15.4706 7 10.5C7 5.52944 11.0294 1.5 16 1.5C20.9706 1.5 25 5.52944 25 10.5Z" stroke="white" stroke-width="1.5" stroke-linecap="round" stroke-linejoin="round"/>
</svg>
