<svg width="42" height="39" viewBox="0 0 42 39" fill="none" xmlns="http://www.w3.org/2000/svg">
<path d="M29 31.5L33 35.5L41 27.5M21 25.5H13C9.27247 25.5 7.4087 25.5 5.93853 26.109C3.97831 26.9209 2.42092 28.4783 1.60896 30.4385C1 31.9087 1 33.7725 1 37.5M28 2.08152C30.9318 3.26829 33 6.14262 33 9.5C33 12.8574 30.9318 15.7317 28 16.9185M24 9.5C24 13.9183 20.4183 17.5 16 17.5C11.5817 17.5 8 13.9183 8 9.5C8 5.08172 11.5817 1.5 16 1.5C20.4183 1.5 24 5.08172 24 9.5Z" stroke="white" stroke-width="1.5" stroke-linecap="round" stroke-linejoin="round"/>
</svg>
