<svg width="39" height="40" viewBox="0 0 39 40" fill="none" xmlns="http://www.w3.org/2000/svg">
<path opacity="0.8" d="M11.7606 14.2067C13.1525 17.1059 15.0501 19.8232 17.4533 22.2264C19.8564 24.6295 22.5737 26.5271 25.473 27.9191C25.7223 28.0388 25.847 28.0987 26.0048 28.1447C26.5655 28.3082 27.254 28.1907 27.7289 27.8507C27.8625 27.755 27.9768 27.6407 28.2055 27.4121C28.9047 26.7129 29.2543 26.3633 29.6058 26.1347C30.9316 25.2727 32.6408 25.2727 33.9666 26.1347C34.3181 26.3633 34.6677 26.7129 35.3669 27.4121L35.7567 27.8018C36.8196 28.8647 37.351 29.3962 37.6397 29.9669C38.2138 31.1021 38.2138 32.4426 37.6397 33.5777C37.351 34.1485 36.8196 34.6799 35.7567 35.7428L35.4414 36.0581C34.3822 37.1173 33.8525 37.6469 33.1325 38.0514C32.3335 38.5003 31.0925 38.823 30.176 38.8203C29.3501 38.8178 28.7857 38.6576 27.6568 38.3372C21.59 36.6152 15.8653 33.3663 11.0893 28.5903C6.31336 23.8144 3.06441 18.0897 1.34247 12.0229C1.02206 10.894 0.861848 10.3295 0.859392 9.50364C0.856665 8.58719 1.17939 7.34621 1.62823 6.5472C2.03273 5.82713 2.56235 5.29751 3.62159 4.23827L3.93686 3.923C4.99975 2.86011 5.53119 2.32867 6.10195 2.03998C7.23708 1.46584 8.57761 1.46584 9.71273 2.03998C10.2835 2.32867 10.8149 2.86011 11.8778 3.923L12.2676 4.31273C12.9668 5.01195 13.3164 5.36155 13.5449 5.71311C14.4069 7.03889 14.4069 8.74805 13.5449 10.0738C13.3164 10.4254 12.9668 10.775 12.2676 11.4742C12.0389 11.7028 11.9246 11.8171 11.8289 11.9508C11.4889 12.4256 11.3715 13.1141 11.535 13.6749C11.581 13.8326 11.6408 13.9573 11.7606 14.2067Z" stroke="white" stroke-width="1.5" stroke-linecap="round" stroke-linejoin="round"/>
</svg>
