<svg width="30" height="43" viewBox="0 0 30 43" fill="none" xmlns="http://www.w3.org/2000/svg">
<path d="M9 34.5H21M4.2 1.5H25.8C26.9201 1.5 27.4802 1.5 27.908 1.71799C28.2843 1.90973 28.5903 2.21569 28.782 2.59202C29 3.01984 29 3.5799 29 4.7V8.84903C29 9.8274 29 10.3166 28.8895 10.7769C28.7915 11.1851 28.6299 11.5753 28.4106 11.9331C28.1632 12.3368 27.8173 12.6827 27.1255 13.3745L21.2627 19.2373C20.4707 20.0293 20.0747 20.4253 19.9263 20.882C19.7958 21.2837 19.7958 21.7163 19.9263 22.118C20.0747 22.5747 20.4707 22.9707 21.2627 23.7627L27.1255 29.6255C27.8173 30.3173 28.1632 30.6632 28.4106 31.0669C28.6299 31.4247 28.7915 31.8149 28.8895 32.2231C29 32.6834 29 33.1726 29 34.151V38.3C29 39.4201 29 39.9802 28.782 40.408C28.5903 40.7843 28.2843 41.0903 27.908 41.282C27.4802 41.5 26.9201 41.5 25.8 41.5H4.2C3.0799 41.5 2.51984 41.5 2.09202 41.282C1.71569 41.0903 1.40973 40.7843 1.21799 40.408C1 39.9802 1 39.4201 1 38.3V34.151C1 33.1726 1 32.6834 1.11052 32.2231C1.20851 31.8149 1.37012 31.4247 1.58944 31.0669C1.83681 30.6632 2.18271 30.3173 2.87452 29.6255L8.73726 23.7627C9.52929 22.9707 9.92531 22.5747 10.0737 22.118C10.2042 21.7163 10.2042 21.2837 10.0737 20.882C9.92531 20.4253 9.52928 20.0293 8.73726 19.2373L2.87451 13.3745C2.18271 12.6827 1.83681 12.3368 1.58944 11.9331C1.37012 11.5753 1.20851 11.1851 1.11052 10.7769C1 10.3166 1 9.8274 1 8.84903V4.7C1 3.5799 1 3.01984 1.21799 2.59202C1.40973 2.21569 1.71569 1.90973 2.09202 1.71799C2.51984 1.5 3.0799 1.5 4.2 1.5Z" stroke="white" stroke-width="1.5" stroke-linecap="round" stroke-linejoin="round"/>
</svg>
