<svg width="42" height="39" viewBox="0 0 42 39" fill="none" xmlns="http://www.w3.org/2000/svg">
<path d="M41 29.5V21.5C41 10.4543 32.0457 1.5 21 1.5C9.95431 1.5 1 10.4543 1 21.5V29.5M12 37.5C9.23858 37.5 7 35.2614 7 32.5V26.5C7 23.7386 9.23858 21.5 12 21.5C14.7614 21.5 17 23.7386 17 26.5V32.5C17 35.2614 14.7614 37.5 12 37.5ZM30 37.5C27.2386 37.5 25 35.2614 25 32.5V26.5C25 23.7386 27.2386 21.5 30 21.5C32.7614 21.5 35 23.7386 35 26.5V32.5C35 35.2614 32.7614 37.5 30 37.5Z" stroke="white" stroke-width="1.5" stroke-linecap="round" stroke-linejoin="round"/>
</svg>
