<svg width="42" height="43" viewBox="0 0 42 43" fill="none" xmlns="http://www.w3.org/2000/svg">
<path d="M21 1.5C26.0026 6.97671 28.8455 14.0841 29 21.5C28.8455 28.9159 26.0026 36.0233 21 41.5M21 1.5C15.9974 6.97671 13.1545 14.0841 13 21.5C13.1545 28.9159 15.9974 36.0233 21 41.5M21 1.5C9.9543 1.5 1 10.4543 1 21.5C1 32.5457 9.9543 41.5 21 41.5M21 1.5C32.0457 1.5 41 10.4543 41 21.5C41 32.5457 32.0457 41.5 21 41.5M2.00004 15.5H40M2 27.5H40" stroke="white" stroke-width="1.5" stroke-linecap="round" stroke-linejoin="round"/>
</svg>
