<svg width="48" height="49" viewBox="0 0 48 49" fill="none" xmlns="http://www.w3.org/2000/svg">
<path d="M24 18.1V21C24 26.6057 19.5228 31.15 14 31.15M4 18.1V21C4 26.6057 8.47715 31.15 14 31.15M14 31.15V35.5M8.28571 35.5H19.7143M14 25.35C11.6331 25.35 9.71429 23.4024 9.71429 21V10.85C9.71429 8.44756 11.6331 6.5 14 6.5C16.3669 6.5 18.2857 8.44756 18.2857 10.85V21C18.2857 23.4024 16.3669 25.35 14 25.35Z" stroke="white" stroke-width="1.5" stroke-linecap="round" stroke-linejoin="round"/>
<path d="M28 35.5H44" stroke="white" stroke-width="1.5" stroke-linecap="round"/>
<path d="M36 43.5V27.5" stroke="white" stroke-width="1.5" stroke-linecap="round"/>
</svg>
