<svg width="42" height="30" viewBox="0 0 42 30" fill="none" xmlns="http://www.w3.org/2000/svg">
<path d="M41 8.86274C41 7.65111 41 7.04529 40.7604 6.76477C40.5525 6.52136 40.2407 6.39218 39.9215 6.4173C39.5538 6.44624 39.1254 6.87462 38.2686 7.73137L31 15L38.2686 22.2686C39.1254 23.1254 39.5538 23.5538 39.9215 23.5827C40.2407 23.6078 40.5525 23.4786 40.7604 23.2352C41 22.9547 41 22.3489 41 21.1373V8.86274Z" stroke="white" stroke-width="1.5" stroke-linecap="round" stroke-linejoin="round"/>
<path d="M1 10.6C1 7.23969 1 5.55953 1.65396 4.27606C2.2292 3.14708 3.14708 2.2292 4.27606 1.65396C5.55953 1 7.23968 1 10.6 1H21.4C24.7603 1 26.4405 1 27.7239 1.65396C28.8529 2.2292 29.7708 3.14708 30.346 4.27606C31 5.55953 31 7.23969 31 10.6V19.4C31 22.7603 31 24.4405 30.346 25.7239C29.7708 26.8529 28.8529 27.7708 27.7239 28.346C26.4405 29 24.7603 29 21.4 29H10.6C7.23968 29 5.55953 29 4.27606 28.346C3.14708 27.7708 2.2292 26.8529 1.65396 25.7239C1 24.4405 1 22.7603 1 19.4V10.6Z" stroke="white" stroke-width="1.5" stroke-linecap="round" stroke-linejoin="round"/>
</svg>
